<?xml version="1.0" encoding="UTF-8"?>
<svg id="Layer_2" data-name="Layer 2" xmlns="http://www.w3.org/2000/svg" viewBox="0 0 500 500">
  <defs>
    <style>
      .cls-1 {
        fill: #fff;
      }

      .cls-2 {
        fill: #ff6b6b;
      }

      .cls-3 {
        fill: #353a42;
      }
    </style>
  </defs>
  <g id="Layer_1-2" data-name="Layer 1">
    <g>
      <rect class="cls-2" width="500" height="500"/>
      <path class="cls-3" d="M456.25,156.25l-212.5-21.88L40.12,211.11l77.98,63.89h219.41c65.58,0,118.75-53.17,118.75-118.75h0Z"/>
      <g>
        <path class="cls-2" d="M400,456.25l6.25-42.71c0-22.71-15.31-42.57-37.28-48.35l-44.2-11.63c-21.97-5.78-37.28-25.65-37.28-48.36,0-3.03,0-35.9,0-36.1l-87.5-.35v36.46c0,22.71-15.31,42.57-37.28,48.35l-44.2,11.63c-21.97,5.78-37.28,25.64-37.28,48.35l6.25,42.71"/>
        <path class="cls-3" d="M406.18,457.15l-12.37-1.81,6.18-42.24c-.2-19.67-13.55-36.85-32.61-41.87l-44.2-11.63c-24.69-6.49-41.93-28.86-41.93-54.4v-29.88l-75-.3v30.18c0,25.53-17.25,47.9-41.94,54.39l-44.2,11.63c-19.06,5.02-32.42,22.2-32.61,41.87l6.18,42.24-12.37,1.81-6.32-43.61c0-25.53,17.24-47.9,41.93-54.39l44.2-11.63c19.2-5.05,32.62-22.45,32.62-42.31v-42.73l100,.4v42.33c0,19.86,13.41,37.26,32.61,42.32l44.2,11.63c24.69,6.49,41.94,28.86,41.94,54.39l-.07,.9-6.25,42.71Z"/>
      </g>
      <g>
        <path class="cls-1" d="M318.87,162.5l-6.25,75c0,31.25-33.33,56.25-56.25,56.25h-25c-12.5,0-56.25-25-56.25-56.25l-6.49-81.25"/>
        <path class="cls-3" d="M256.37,300h-25c-14.65,0-62.5-26.64-62.5-62.5l-6.47-80.75,12.46-1,6.49,81.25c.02,27.43,40.52,50.5,50.02,50.5h25c19.74,0,50-22.4,50-50l6.27-75.52,12.46,1.04-6.25,75c.02,35.74-37.31,61.98-62.48,61.98Z"/>
      </g>
      <g>
        <path class="cls-2" d="M324.53,139.78l-6.88-38.49c-6.57-36.76-38.86-63.32-76.2-62.67h0c-38.06,.66-69.77,29.36-74.22,67.16l-4.73,40.24L37.5,212.5s31.71,56.25,81.07,56.25c74.14,0,80.23-93.18,179.11-93.18,37.86,0,50.98,34.22,93.9,34.22s58.42-53.54,58.42-53.54l-125.47-16.47Z"/>
        <path class="cls-3" d="M118.57,275c-52.41,0-85.15-57.01-86.52-59.43l-3.15-5.58,127.76-67.94,4.35-36.99c4.79-40.72,39.32-71.97,80.32-72.68,.49,0,.99-.01,1.48-.01,39.99,0,73.91,28.31,80.98,67.83l6.07,33.98,128.15,16.82-2.02,6.99c-.69,2.37-17.34,58.05-64.42,58.05-23.96,0-39.64-10.04-53.47-18.9-12.84-8.22-23.92-15.32-40.43-15.32-50.37,0-75.26,25.29-99.32,49.74-21.02,21.36-42.76,43.44-79.79,43.44Zm-72.18-60.15c9.16,13.53,35.87,47.65,72.18,47.65,31.79,0,49.91-18.4,70.88-39.72,24.66-25.06,52.62-53.47,108.23-53.47,20.17,0,33.89,8.79,47.17,17.29,13.59,8.71,26.43,16.93,46.73,16.93,28.89,0,44.22-28.59,49.86-42.11l-122.26-16.05-7.68-42.99c-6.07-33.93-35.53-58.19-69.94-57.51-34.77,.6-64.06,27.11-68.12,61.65l-5.11,43.49L46.39,214.85Z"/>
      </g>
      <path class="cls-2" d="M256.25,256.25h-25c-6.9,0-12.5-5.6-12.5-12.5s5.6-12.5,12.5-12.5h25c6.9,0,12.5,5.6,12.5,12.5s-5.6,12.5-12.5,12.5Z"/>
    </g>
  </g>
</svg>