<svg width="48" height="48" viewBox="0 0 48 48" fill="none" xmlns="http://www.w3.org/2000/svg">
<g clip-path="url(#clip0_149_7492)">
<path d="M8.5 0.600342H39.5C44.2 0.600342 48 4.40034 48 9.10034V38.9003C48 43.6003 44.2 47.4003 39.5 47.4003H8.5C3.8 47.4003 0 43.6003 0 38.9003V9.10034C0 4.40034 3.8 0.600342 8.5 0.600342Z" fill="#00005B"/>
<path d="M19.2804 28.6004H11.8404L10.3204 33.3204C10.2804 33.5004 10.1204 33.6204 9.94039 33.6004H6.18039C5.96039 33.6004 5.90039 33.4804 5.96039 33.2404L12.4004 14.7804C12.4604 14.5804 12.5204 14.4004 12.6004 14.1604C12.6804 13.7404 12.7204 13.3004 12.7204 12.8604C12.7004 12.7604 12.7804 12.6604 12.8804 12.6404H12.9404H18.0604C18.2004 12.6404 18.3004 12.7004 18.3204 12.8004L25.6204 33.2004C25.6804 33.4204 25.6204 33.5204 25.4204 33.5204H21.2404C21.1004 33.5404 20.9604 33.4404 20.9204 33.3004L19.2804 28.5004V28.6004ZM13.0004 24.6204H18.0804C17.9604 24.2004 17.8004 23.7004 17.6204 23.1804C17.4404 22.6404 17.2604 22.0604 17.0804 21.4604C16.8804 20.8404 16.7004 20.2404 16.5004 19.6204C16.3004 19.0004 16.1204 18.4204 15.9604 17.8404C15.8004 17.2804 15.6604 16.7604 15.5204 16.2804H15.4804C15.3004 17.1404 15.0804 18.0004 14.8004 18.8604C14.5004 19.8204 14.2004 20.8204 13.8804 21.8204C13.6204 22.8404 13.3004 23.7804 13.0004 24.6204Z" fill="#9999FF"/>
<path d="M37.4 26.8003H31.06C31.14 27.4203 31.34 28.0403 31.68 28.5803C32.04 29.1203 32.54 29.5403 33.14 29.7803C33.94 30.1203 34.82 30.3003 35.7 30.2803C36.4 30.2603 37.1 30.2003 37.78 30.0603C38.4 29.9803 39 29.8203 39.56 29.6003C39.66 29.5203 39.72 29.5603 39.72 29.7603V32.8203C39.72 32.9003 39.7 32.9803 39.68 33.0603C39.64 33.1203 39.6 33.1603 39.54 33.2003C38.9 33.4803 38.24 33.6803 37.54 33.8003C36.6 33.9803 35.66 34.0603 34.7 34.0403C33.18 34.0403 31.9 33.8003 30.86 33.3403C29.88 32.9203 29.02 32.2603 28.34 31.4403C27.7 30.6603 27.24 29.7803 26.96 28.8203C26.68 27.8803 26.54 26.9003 26.54 25.9003C26.54 24.8203 26.7 23.7603 27.04 22.7203C27.36 21.7203 27.86 20.8003 28.54 19.9803C29.2 19.1803 30.02 18.5403 30.96 18.0803C31.9 17.6203 33.02 17.4603 34.3 17.4603C35.36 17.4403 36.42 17.6403 37.4 18.0803C38.22 18.4403 38.94 18.9803 39.5 19.6803C40.02 20.3603 40.44 21.1203 40.7 21.9603C40.96 22.7603 41.08 23.5803 41.08 24.4003C41.08 24.8803 41.06 25.3003 41.04 25.6803C41 26.0603 40.98 26.3403 40.96 26.5203C40.94 26.6603 40.82 26.7803 40.68 26.7803C40.56 26.7803 40.34 26.8003 40.02 26.8203C39.7 26.8603 39.32 26.8803 38.86 26.8803C38.4 26.8803 37.92 26.8003 37.4 26.8003ZM31.06 23.8803H35.28C35.8 23.8803 36.18 23.8803 36.42 23.8603C36.58 23.8403 36.74 23.8003 36.88 23.7003V23.5003C36.88 23.2403 36.84 23.0003 36.76 22.7603C36.4 21.6403 35.34 20.8803 34.16 20.9203C33.06 20.8603 32.02 21.4403 31.5 22.4403C31.26 22.9003 31.12 23.3803 31.06 23.8803Z" fill="#9999FF"/>
</g>
<defs>
<clipPath id="clip0_149_7492">
<rect width="48" height="48" fill="white" transform="translate(0 0.000244141)"/>
</clipPath>
</defs>
</svg>
