<svg width="48" height="48" viewBox="0 0 48 48" fill="none" xmlns="http://www.w3.org/2000/svg">
<path d="M18.8901 26.1533C19.0645 23.0413 20.5885 20.2995 22.8876 18.3559C25.1423 16.4468 28.177 15.28 31.4883 15.28C34.7963 15.28 37.831 16.4468 40.0873 18.3559C42.3848 20.2995 43.9088 23.0413 44.0849 26.1501C44.2593 29.3477 42.974 32.3183 40.7193 34.5203C38.4202 36.7601 35.1501 38.1655 31.4883 38.1655C27.8265 38.1655 24.5498 36.7601 22.2523 34.5203C19.996 32.3183 18.714 29.3477 18.8901 26.1533Z" fill="white"/>
<path d="M25.0141 26.4346C25.1036 24.8378 25.8856 23.431 27.0653 22.4337C28.2221 21.4542 29.7793 20.8555 31.4783 20.8555C33.1757 20.8555 34.7328 21.4542 35.8905 22.4337C37.0694 23.431 37.8513 24.8378 37.9417 26.433C38.0312 28.0737 37.3717 29.5979 36.2148 30.7277C35.0351 31.877 33.3572 32.5982 31.4783 32.5982C29.5994 32.5982 27.9181 31.877 26.7393 30.7277C25.5816 29.5979 24.9237 28.0737 25.0141 26.4346Z" fill="#265787"/>
<path d="M14.7207 29.6688C14.7317 30.2937 14.931 31.508 15.2299 32.4563C15.8582 34.4635 16.9239 36.3204 18.4067 37.9569C19.9284 39.639 21.8023 40.9902 23.9666 41.9494C26.2415 42.9568 28.7064 43.4702 31.2668 43.466C33.8229 43.4626 36.2879 42.9391 38.5628 41.9241C40.7271 40.9555 42.5992 39.5985 44.1184 37.9156C45.6004 36.2723 46.6644 34.412 47.2943 32.4048C47.611 31.3906 47.8111 30.3613 47.8914 29.3285C47.9699 28.311 47.937 27.2917 47.7926 26.2733C47.5105 24.2889 46.824 22.427 45.7667 20.7296C44.7998 19.17 43.5535 17.8045 42.0715 16.6553L42.0748 16.6527L27.1189 5.16927C27.1054 5.15914 27.0944 5.14818 27.08 5.13889C26.0988 4.38565 24.4487 4.38819 23.3695 5.14311C22.2785 5.90648 22.1535 7.16889 23.1247 7.96519L23.1204 7.96942L29.3583 13.0419L10.3457 13.0622H10.3203C8.74884 13.0639 7.23813 14.0949 6.9392 15.3979C6.63182 16.7253 7.69919 17.8265 9.33319 17.8324L9.33066 17.8383L18.9674 17.8197L1.77119 31.0191C1.74923 31.0351 1.72559 31.052 1.70532 31.068C0.0831426 32.3102 -0.441245 34.3757 0.580532 35.6829C1.61751 37.012 3.82235 37.0145 5.46142 35.6905L14.8466 28.0095C14.8466 28.0095 14.7098 29.0465 14.7207 29.6688ZM38.8372 33.1411C36.9034 35.1112 34.1962 36.2284 31.2668 36.2343C28.3332 36.2394 25.6259 35.1323 23.6921 33.1656C22.7472 32.2072 22.0531 31.1044 21.6249 29.9298C21.2052 28.7754 21.0423 27.5501 21.1503 26.3139C21.2525 25.1055 21.6123 23.9528 22.1865 22.91C22.7506 21.8848 23.5275 20.9585 24.4867 20.1749C26.3665 18.6431 28.7596 17.8138 31.2626 17.8104C33.768 17.8071 36.1595 18.6287 38.0409 20.1554C38.9985 20.9357 39.7746 21.8587 40.3387 22.8821C40.9154 23.9241 41.2726 25.0726 41.379 26.2843C41.4854 27.5189 41.3224 28.7425 40.9027 29.8977C40.4738 31.0757 39.7822 32.1785 38.8372 33.1411Z" fill="#EA7600"/>
</svg>
