<svg width="48" height="48" viewBox="0 0 48 48" fill="none" xmlns="http://www.w3.org/2000/svg">
<path d="M2.38484 34.9827C1.91212 35.7536 1.38121 36.6482 0.930298 37.3609C0.736286 37.6888 0.678643 38.0797 0.769759 38.4496C0.860875 38.8195 1.09348 39.1389 1.41757 39.3391L10.8721 45.1573C11.0364 45.2587 11.2193 45.3264 11.41 45.3565C11.6007 45.3865 11.7955 45.3783 11.983 45.3322C12.1706 45.2862 12.347 45.2033 12.5022 45.0883C12.6573 44.9734 12.788 44.8287 12.8867 44.6627C13.2648 44.03 13.7521 43.2082 14.283 42.3282C18.0285 36.1464 21.7958 36.9027 28.5885 40.1464L37.963 44.6045C38.1388 44.6882 38.3295 44.7357 38.5239 44.7443C38.7184 44.7529 38.9126 44.7224 39.095 44.6546C39.2774 44.5868 39.4444 44.483 39.586 44.3495C39.7276 44.216 39.841 44.0554 39.9194 43.8773L44.4212 33.6955C44.5741 33.3459 44.5835 32.9503 44.4475 32.5939C44.3114 32.2375 44.0408 31.9488 43.6939 31.79C41.7158 30.8591 37.7812 29.0045 34.2394 27.2955C21.4976 21.1064 10.6685 21.5064 2.38484 34.9827Z" fill="url(#paint0_linear_150_7648)"/>
<path d="M44.7772 11.8775C45.2499 11.1066 45.7808 10.2121 46.2317 9.49932C46.4258 9.17147 46.4834 8.78058 46.3923 8.41067C46.3012 8.04077 46.0686 7.72138 45.7445 7.52114L36.2899 1.70296C36.1244 1.59148 35.9377 1.51525 35.7415 1.47901C35.5452 1.44278 35.3436 1.44731 35.1492 1.49234C34.9548 1.53736 34.7717 1.62191 34.6114 1.74072C34.451 1.85953 34.3169 2.01007 34.2172 2.18296C33.839 2.81569 33.3517 3.63751 32.8208 4.51751C29.0754 10.6993 25.3081 9.94296 18.5154 6.69932L9.16992 2.26296C8.99418 2.17932 8.80345 2.13179 8.60901 2.1232C8.41457 2.1146 8.22039 2.14512 8.03796 2.21294C7.85553 2.28076 7.68857 2.38449 7.54696 2.51801C7.40535 2.65153 7.29198 2.81211 7.21356 2.99023L2.71174 13.1721C2.55886 13.5216 2.54943 13.9172 2.68546 14.2736C2.8215 14.63 3.09212 14.9187 3.43901 15.0775C5.41719 16.0084 9.35174 17.863 12.8936 19.5721C25.6645 25.7539 36.4936 25.3393 44.7772 11.8775Z" fill="url(#paint1_linear_150_7648)"/>
<defs>
<linearGradient id="paint0_linear_150_7648" x1="44.1667" y1="48.1609" x2="15.563" y2="31.7245" gradientUnits="userSpaceOnUse">
<stop offset="0.18" stop-color="#0052CC"/>
<stop offset="1" stop-color="#2684FF"/>
</linearGradient>
<linearGradient id="paint1_linear_150_7648" x1="2.99537" y1="-1.30795" x2="31.6063" y2="15.1357" gradientUnits="userSpaceOnUse">
<stop offset="0.18" stop-color="#0052CC"/>
<stop offset="1" stop-color="#2684FF"/>
</linearGradient>
</defs>
</svg>
