<svg width="48" height="48" viewBox="0 0 48 48" fill="none" xmlns="http://www.w3.org/2000/svg">
<g clip-path="url(#clip0_149_7494)">
<path d="M41.0378 9.43311L37.9397 44.1395L24.0137 48.0002L10.126 44.1449L7.03125 9.43311H41.0378Z" fill="#264DE4"/>
<path d="M35.2871 41.9297L37.9346 12.2715H24.0342V45.0494L35.2871 41.9297Z" fill="#2965F1"/>
<path d="M14.126 25.1455L14.5075 29.4027H24.0345V25.1455H14.126Z" fill="#EBEBEB"/>
<path d="M24.0346 16.5288H24.0198H13.3594L13.7464 20.7861H24.0346V16.5288Z" fill="#EBEBEB"/>
<path d="M24.035 40.6315V36.2021L24.0163 36.2071L19.275 34.9269L18.9719 31.5315H16.6679H14.6982L15.2947 38.216L24.0154 40.6369L24.035 40.6315Z" fill="#EBEBEB"/>
<path d="M15.0342 0H20.1905V2.15626H17.1904V4.31253H20.1905V6.46879H15.0342V0Z" fill="black"/>
<path d="M21.2217 0H26.378V1.87501H23.3779V2.25001H26.378V6.56254H21.2217V4.59378H24.2217V4.21878H21.2217V0Z" fill="black"/>
<path d="M27.4092 0H32.5655V1.87501H29.5654V2.25001H32.5655V6.56254H27.4092V4.59378H30.4092V4.21878H27.4092V0Z" fill="black"/>
<path d="M29.2619 29.4028L28.7677 34.9242L24.0195 36.2057V40.6349L32.7471 38.216L32.8112 37.4968L33.8116 26.2888L33.9155 25.1456L34.684 16.5288H24.0195V20.7861H30.0184L29.6311 25.1456H24.0195V29.4028H29.2619Z" fill="white"/>
</g>
<defs>
<clipPath id="clip0_149_7494">
<rect width="48" height="48.0003" fill="white"/>
</clipPath>
</defs>
</svg>
