<svg width="48" height="48" viewBox="0 0 48 48" fill="none" xmlns="http://www.w3.org/2000/svg">
<g clip-path="url(#clip0_149_7496)">
<path d="M15.9902 48.0002C20.4062 48.0002 23.9902 44.4162 23.9902 40.0002V32.0002H15.9902C11.5742 32.0002 7.99023 35.5842 7.99023 40.0002C7.99023 44.4162 11.5742 48.0002 15.9902 48.0002Z" fill="#0ACF83"/>
<path d="M7.99023 24.0002C7.99023 19.5842 11.5742 16.0002 15.9902 16.0002H23.9902V32.0002H15.9902C11.5742 32.0002 7.99023 28.4162 7.99023 24.0002Z" fill="#A259FF"/>
<path d="M7.99023 8.00024C7.99023 3.58424 11.5742 0.000244141 15.9902 0.000244141H23.9902V16.0002H15.9902C11.5742 16.0002 7.99023 12.4162 7.99023 8.00024Z" fill="#F24E1E"/>
<path d="M23.9902 0.000244141H31.9902C36.4062 0.000244141 39.9902 3.58424 39.9902 8.00024C39.9902 12.4162 36.4062 16.0002 31.9902 16.0002H23.9902V0.000244141Z" fill="#FF7262"/>
<path d="M39.9902 24.0002C39.9902 28.4162 36.4062 32.0002 31.9902 32.0002C27.5742 32.0002 23.9902 28.4162 23.9902 24.0002C23.9902 19.5842 27.5742 16.0002 31.9902 16.0002C36.4062 16.0002 39.9902 19.5842 39.9902 24.0002Z" fill="#1ABCFE"/>
</g>
<defs>
<clipPath id="clip0_149_7496">
<rect width="48" height="48" fill="white" transform="translate(0 0.000244141)"/>
</clipPath>
</defs>
</svg>
