<svg width="48" height="48" viewBox="0 0 48 48" fill="none" xmlns="http://www.w3.org/2000/svg">
<g clip-path="url(#clip0_150_7688)">
<path fill-rule="evenodd" clip-rule="evenodd" d="M25.1486 1.45483C12.0577 1.45483 1.4541 12.0585 1.4541 25.1494C1.4541 35.6221 8.24683 44.4948 17.6577 47.6367C18.8359 47.8548 19.2723 47.1276 19.2723 46.4876C19.2723 45.9203 19.2577 44.4367 19.2432 42.4585C12.6541 43.8839 11.2577 39.2876 11.2577 39.2876C10.1814 36.553 8.62501 35.8257 8.62501 35.8257C6.47228 34.3567 8.78501 34.3857 8.78501 34.3857C11.1559 34.5603 12.4214 36.8294 12.4214 36.8294C14.5305 40.4512 17.9632 39.4039 19.3159 38.793C19.5341 37.2657 20.145 36.2185 20.8141 35.6221C15.5486 35.0257 10.0214 32.9894 10.0214 23.913C10.0214 21.3239 10.9377 19.2148 12.465 17.5567C12.2177 16.9603 11.4032 14.5457 12.6977 11.2876C12.6977 11.2876 14.6905 10.6476 19.2141 13.7167C21.105 13.193 23.1268 12.9312 25.1486 12.9167C27.1559 12.9167 29.1923 13.193 31.0832 13.7167C35.6068 10.6476 37.5996 11.2876 37.5996 11.2876C38.8941 14.5457 38.0796 16.9603 37.8323 17.5567C39.345 19.2148 40.2614 21.3239 40.2614 23.913C40.2614 33.0185 34.7196 35.0112 29.4396 35.6076C30.2832 36.3348 31.0541 37.7894 31.0541 40.0003C31.0541 43.1712 31.025 45.7167 31.025 46.5021C31.025 47.1421 31.4468 47.8694 32.6541 47.6367C42.065 44.4948 48.8432 35.6221 48.8432 25.1639C48.8432 12.0585 38.2396 1.45483 25.1486 1.45483Z" fill="#191717"/>
</g>
<defs>
<clipPath id="clip0_150_7688">
<rect width="48" height="48" fill="white" transform="translate(0 0.000244141)"/>
</clipPath>
</defs>
</svg>
