<svg width="48" height="48" viewBox="0 0 48 48" fill="none" xmlns="http://www.w3.org/2000/svg">
<g clip-path="url(#clip0_149_7488)">
<path d="M10.1621 0.000244141H12.3184V2.13774H14.3059V0.000244141H16.4621V6.46899H14.3059V4.31274H12.3371V6.46899H10.1621M19.3121 2.15649H17.409V0.000244141H23.3809V2.15649H21.4684V6.46899H19.3121M24.3277 0.000244141H26.5871L27.9746 2.27837L29.3621 0.000244141H31.6215V6.46899H29.4652V3.26274L27.9559 5.58774L26.4465 3.26274V6.46899H24.3277M32.6902 0.000244141H34.8465V4.33149H37.9027V6.46899H32.6902" fill="black"/>
<path d="M10.0879 44.1564L6.99414 9.4314H41.0066L37.9129 44.1376L23.9723 48.0001" fill="#E44D26"/>
<path d="M24 45.0471V12.2815H37.9031L35.25 41.9065" fill="#F16529"/>
<path d="M13.3125 16.5283H24V20.7846H17.9813L18.375 25.1439H24V29.3908H14.475M14.6625 31.5283H18.9375L19.2375 34.9314L24 36.2064V40.6502L15.2625 38.2127" fill="#EBEBEB"/>
<path d="M34.6502 16.5283H23.9814V20.7846H34.2564M33.8721 25.1439H23.9814V29.4002H29.2314L28.7346 34.9314L23.9814 36.2064V40.6314L32.7002 38.2127" fill="white"/>
</g>
<defs>
<clipPath id="clip0_149_7488">
<rect width="48" height="48" fill="white" transform="translate(0 0.000244141)"/>
</clipPath>
</defs>
</svg>
