<svg width="48" height="48" viewBox="0 0 48 48" fill="none" xmlns="http://www.w3.org/2000/svg">
<g clip-path="url(#clip0_149_7491)">
<path d="M8.5 0.600342H39.5C44.2 0.600342 48 4.40034 48 9.10034V38.9003C48 43.6003 44.2 47.4003 39.5 47.4003H8.5C3.8 47.4003 0 43.6003 0 38.9003V9.10034C0 4.40034 3.8 0.600342 8.5 0.600342Z" fill="#330000"/>
<path d="M23.2003 28.6002H15.7603L14.2403 33.3002C14.2003 33.4802 14.0403 33.6002 13.8603 33.5802H10.1003C9.88031 33.5802 9.82031 33.4602 9.88031 33.2202L16.3203 14.6802C16.3803 14.4802 16.4403 14.2602 16.5203 14.0202C16.6003 13.6002 16.6403 13.1602 16.6403 12.7202C16.6203 12.6202 16.7003 12.5202 16.8003 12.5002H21.9803C22.1403 12.5002 22.2203 12.5602 22.2403 12.6602L29.5403 33.2602C29.6003 33.4802 29.5403 33.5802 29.3403 33.5802H25.1603C25.0203 33.6002 24.8803 33.5002 24.8403 33.3602L23.2003 28.6002ZM16.9203 24.5402H22.0003C21.8803 24.1202 21.7203 23.6202 21.5403 23.1002C21.3603 22.5602 21.1803 21.9802 21.0003 21.3802C20.8003 20.7602 20.6203 20.1602 20.4203 19.5402C20.2203 18.9202 20.0403 18.3402 19.8803 17.7602C19.7203 17.2002 19.5803 16.6802 19.4403 16.2002H19.4003C19.2203 17.0602 19.0003 17.9202 18.7203 18.7802C18.4203 19.7402 18.1203 20.7402 17.8003 21.7402C17.5203 22.7602 17.2203 23.7002 16.9203 24.5402ZM34.0003 16.0002C33.3403 16.0202 32.7003 15.7602 32.2203 15.3002C31.7603 14.8002 31.5203 14.1402 31.5403 13.4602C31.5203 12.7802 31.7803 12.1402 32.2603 11.6802C32.7403 11.2202 33.3803 10.9802 34.0403 10.9802C34.8203 10.9802 35.4203 11.2202 35.8603 11.6802C36.3003 12.1602 36.5403 12.8002 36.5203 13.4602C36.5403 14.1402 36.3003 14.8002 35.8203 15.3002C35.3603 15.7802 34.6803 16.0402 34.0003 16.0002ZM31.7603 33.3602V17.9602C31.7603 17.7602 31.8403 17.6802 32.0203 17.6802H35.9803C36.1603 17.6802 36.2403 17.7802 36.2403 17.9602V33.3602C36.2403 33.5802 36.1603 33.6802 35.9803 33.6802H32.0603C31.8603 33.6802 31.7603 33.5602 31.7603 33.3602Z" fill="#FF9A00"/>
</g>
<defs>
<clipPath id="clip0_149_7491">
<rect width="48" height="48" fill="white" transform="translate(0 0.000244141)"/>
</clipPath>
</defs>
</svg>
