<svg width="48" height="48" viewBox="0 0 48 48" fill="none" xmlns="http://www.w3.org/2000/svg">
<g clip-path="url(#clip0_150_7647)">
<path d="M46.5579 22.6372L25.9197 1.99896L23.9195 0.000244141L1.28254 22.6372C0.54254 23.3792 0.54254 24.5804 1.28254 25.321L15.476 39.514L23.9195 47.9594L46.5579 25.321C47.2985 24.5804 47.2985 23.3792 46.5579 22.6372ZM23.9195 31.0685L16.8305 23.9801L23.9195 16.8891L31.0099 23.9801L23.9195 31.0685Z" fill="#2684FF"/>
<path d="M23.9191 16.8891C19.278 12.246 19.2543 4.72603 23.8697 0.0556641L8.35352 15.5659L16.799 24.0113L23.9191 16.8891Z" fill="url(#paint0_linear_150_7647)"/>
<path d="M31.0291 23.96L23.9189 31.0686C26.1596 33.3072 27.4198 36.3458 27.4198 39.514C27.4198 42.6822 26.1596 45.7188 23.9189 47.9595L39.4725 32.4054L31.0291 23.96Z" fill="url(#paint1_linear_150_7647)"/>
</g>
<defs>
<linearGradient id="paint0_linear_150_7647" x1="20.872" y1="11.4993" x2="12.753" y2="19.6163" gradientUnits="userSpaceOnUse">
<stop stop-color="#0052CC"/>
<stop offset="1" stop-color="#2684FF"/>
</linearGradient>
<linearGradient id="paint1_linear_150_7647" x1="27.0538" y1="36.3814" x2="35.1566" y2="28.2786" gradientUnits="userSpaceOnUse">
<stop stop-color="#0052CC"/>
<stop offset="1" stop-color="#2684FF"/>
</linearGradient>
<clipPath id="clip0_150_7647">
<rect width="48" height="48" fill="white" transform="translate(0 0.000244141)"/>
</clipPath>
</defs>
</svg>
