<svg width="48" height="48" viewBox="0 0 48 48" fill="none" xmlns="http://www.w3.org/2000/svg">
<g clip-path="url(#clip0_149_7495)">
<path d="M8.5 0.600342H39.5C44.2 0.600342 48 4.40034 48 9.10034V38.9003C48 43.6003 44.2 47.4003 39.5 47.4003H8.5C3.8 47.4003 0 43.6003 0 38.9003V9.10034C0 4.40034 3.8 0.600342 8.5 0.600342Z" fill="#001E36"/>
<path d="M10.7998 33.4202V12.8402C10.7998 12.7002 10.8598 12.6202 10.9998 12.6202C11.3398 12.6202 11.6598 12.6202 12.1198 12.6002C12.5998 12.5802 13.0998 12.5802 13.6398 12.5602C14.1798 12.5402 14.7598 12.5402 15.3798 12.5202C15.9998 12.5002 16.5998 12.5002 17.1998 12.5002C18.8398 12.5002 20.1998 12.7002 21.3198 13.1202C22.3198 13.4602 23.2398 14.0202 23.9998 14.7602C24.6398 15.4002 25.1398 16.1802 25.4598 17.0402C25.7598 17.8802 25.9198 18.7402 25.9198 19.6402C25.9198 21.3602 25.5198 22.7802 24.7198 23.9002C23.9198 25.0202 22.7998 25.8602 21.4998 26.3402C20.1398 26.8402 18.6398 27.0202 16.9998 27.0202C16.5198 27.0202 16.1998 27.0202 15.9998 27.0002C15.7998 26.9802 15.5198 26.9802 15.1398 26.9802V33.4002C15.1598 33.5402 15.0598 33.6602 14.9198 33.6802C14.8998 33.6802 14.8798 33.6802 14.8398 33.6802H11.0398C10.8798 33.6802 10.7998 33.6002 10.7998 33.4202ZM15.1598 16.4802V23.2002C15.4398 23.2202 15.6998 23.2402 15.9398 23.2402H16.9998C17.7798 23.2402 18.5598 23.1202 19.2998 22.8802C19.9398 22.7002 20.4998 22.3202 20.9398 21.8202C21.3598 21.3202 21.5598 20.6402 21.5598 19.7602C21.5798 19.1402 21.4198 18.5202 21.0998 17.9802C20.7598 17.4602 20.2798 17.0602 19.6998 16.8402C18.9598 16.5402 18.1598 16.4202 17.3398 16.4402C16.8198 16.4402 16.3598 16.4402 15.9798 16.4602C15.5798 16.4402 15.2998 16.4602 15.1598 16.4802Z" fill="#31A8FF"/>
<path d="M38.4002 21.9802C37.8002 21.6602 37.1602 21.4402 36.4802 21.3002C35.7402 21.1402 35.0002 21.0402 34.2402 21.0402C33.8402 21.0202 33.4202 21.0802 33.0402 21.1802C32.7802 21.2402 32.5602 21.3802 32.4202 21.5802C32.3202 21.7402 32.2602 21.9402 32.2602 22.1202C32.2602 22.3002 32.3402 22.4802 32.4602 22.6402C32.6402 22.8602 32.8802 23.0402 33.1402 23.1802C33.6002 23.4202 34.0802 23.6402 34.5602 23.8402C35.6402 24.2002 36.6802 24.7002 37.6402 25.3002C38.3002 25.7202 38.8402 26.2802 39.2202 26.9602C39.5402 27.6002 39.7002 28.3002 39.6802 29.0202C39.7002 29.9602 39.4202 30.9002 38.9002 31.6802C38.3402 32.4802 37.5602 33.1002 36.6602 33.4602C35.6802 33.8802 34.4802 34.1002 33.0402 34.1002C32.1202 34.1002 31.2202 34.0202 30.3202 33.8402C29.6202 33.7202 28.9202 33.5002 28.2802 33.2002C28.1402 33.1202 28.0402 32.9802 28.0602 32.8202V29.3402C28.0602 29.2802 28.0802 29.2002 28.1402 29.1602C28.2002 29.1202 28.2602 29.1402 28.3202 29.1802C29.1002 29.6402 29.9202 29.9602 30.8002 30.1602C31.5602 30.3602 32.3602 30.4602 33.1602 30.4602C33.9202 30.4602 34.4602 30.3602 34.8202 30.1802C35.1402 30.0402 35.3602 29.7002 35.3602 29.3402C35.3602 29.0602 35.2002 28.8002 34.8802 28.5402C34.5602 28.2802 33.9002 27.9802 32.9202 27.6002C31.9002 27.2402 30.9602 26.7602 30.0802 26.1602C29.4602 25.7202 28.9402 25.1402 28.5602 24.4602C28.2402 23.8202 28.0802 23.1202 28.1002 22.4202C28.1002 21.5602 28.3402 20.7402 28.7802 20.0002C29.2802 19.2002 30.0202 18.5602 30.8802 18.1602C31.8202 17.6802 33.0002 17.4602 34.4202 17.4602C35.2402 17.4602 36.0802 17.5202 36.9002 17.6402C37.5002 17.7202 38.0802 17.8802 38.6202 18.1002C38.7002 18.1202 38.7802 18.2002 38.8202 18.2802C38.8402 18.3602 38.8602 18.4402 38.8602 18.5202V21.7802C38.8602 21.8602 38.8202 21.9402 38.7602 21.9802C38.5802 22.0202 38.4802 22.0202 38.4002 21.9802Z" fill="#31A8FF"/>
</g>
<defs>
<clipPath id="clip0_149_7495">
<rect width="48" height="48" fill="white" transform="translate(0 0.000244141)"/>
</clipPath>
</defs>
</svg>
