<svg width="48" height="48" viewBox="0 0 48 48" fill="none" xmlns="http://www.w3.org/2000/svg">
<g clip-path="url(#clip0_149_7490)">
<path d="M8.5 0.600342H39.5C44.2 0.600342 48 4.40034 48 9.10034V38.9003C48 43.6003 44.2 47.4003 39.5 47.4003H8.5C3.8 47.4003 0 43.6003 0 38.9003V9.10034C0 4.40034 3.8 0.600342 8.5 0.600342Z" fill="#00005B"/>
<path d="M11.4004 33.4004V12.8004C11.4004 12.6604 11.4604 12.5804 11.6004 12.5804C11.9404 12.5804 12.2604 12.5804 12.7204 12.5604C13.2004 12.5404 13.7004 12.5404 14.2404 12.5204C14.7804 12.5004 15.3604 12.5004 15.9804 12.4804C16.6004 12.4604 17.2004 12.4604 17.8004 12.4604C19.4404 12.4604 20.8004 12.6604 21.9204 13.0804C22.9204 13.4204 23.8404 13.9804 24.6004 14.7204C25.2404 15.3604 25.7404 16.1404 26.0604 17.0004C26.3604 17.8404 26.5204 18.7004 26.5204 19.6004C26.5204 21.3204 26.1204 22.7404 25.3204 23.8604C24.5204 24.9804 23.4004 25.8204 22.1004 26.3004C20.7404 26.8004 19.2404 26.9804 17.6004 26.9804C17.1204 26.9804 16.8004 26.9804 16.6004 26.9604C16.4004 26.9404 16.1204 26.9404 15.7404 26.9404V33.3604C15.7604 33.5005 15.6604 33.6204 15.5204 33.6404H15.4404H11.6404C11.4804 33.6404 11.4004 33.5604 11.4004 33.3804V33.4004ZM15.7604 16.4605V23.1804C16.0404 23.2004 16.3004 23.2204 16.5404 23.2204H17.6004C18.3804 23.2204 19.1604 23.1005 19.9004 22.8604C20.5404 22.6805 21.1004 22.3004 21.5404 21.8004C21.9604 21.3004 22.1604 20.6204 22.1604 19.7404C22.1804 19.1204 22.0204 18.5005 21.7004 17.9605C21.3604 17.4405 20.8804 17.0404 20.3004 16.8204C19.5604 16.5204 18.7604 16.4004 17.9404 16.4204C17.4204 16.4204 16.9604 16.4204 16.5804 16.4404C16.1804 16.4204 15.9004 16.4404 15.7604 16.4605Z" fill="#9999FF"/>
<path d="M29.4001 17.6404H32.9001C33.1001 17.6404 33.2601 17.7804 33.3201 17.9604C33.3801 18.1204 33.4201 18.2804 33.4401 18.4604C33.4801 18.6604 33.5201 18.8804 33.5401 19.0804C33.5601 19.3004 33.5801 19.5404 33.5801 19.8004C34.1801 19.1004 34.9001 18.5204 35.7201 18.0804C36.6401 17.5604 37.7001 17.3004 38.7601 17.3004C38.9001 17.2804 39.0201 17.3804 39.0401 17.5204V17.6004V21.5004C39.0401 21.6604 38.9401 21.7204 38.7201 21.7204C38.0001 21.7004 37.2601 21.7604 36.5601 21.9204C35.9801 22.0404 35.4201 22.2204 34.8801 22.4604C34.5001 22.6404 34.1401 22.8804 33.8601 23.2004V33.4004C33.8601 33.6004 33.7801 33.6804 33.6001 33.6804H29.6601C29.5001 33.7004 29.3601 33.6004 29.3401 33.4404V33.3604V22.2804C29.3401 21.8004 29.3401 21.3004 29.3201 20.7804C29.3001 20.2604 29.3001 19.7404 29.2801 19.2204C29.2801 18.7604 29.2401 18.3204 29.2001 17.8604C29.1801 17.7604 29.2401 17.6604 29.3401 17.6404C29.3401 17.6204 29.3801 17.6204 29.4001 17.6404Z" fill="#9999FF"/>
</g>
<defs>
<clipPath id="clip0_149_7490">
<rect width="48" height="48" fill="white" transform="translate(0 0.000244141)"/>
</clipPath>
</defs>
</svg>
