<svg width="48" height="48" viewBox="0 0 48 48" fill="none" xmlns="http://www.w3.org/2000/svg">
<path d="M10.4516 3.74217L23.9516 2.31494L37.4516 3.74217L47.9032 17.7725L23.9516 45.6639L0 17.7725L10.4516 3.74217Z" fill="#FDB300"/>
<path d="M9.7016 17.7725L23.9516 45.6639L0 17.7725H9.7016Z" fill="#EA6C00"/>
<path d="M38.2012 17.7725L23.9512 45.6639L47.9028 17.7725H38.2012Z" fill="#EA6C00"/>
<path d="M9.70117 17.7725H38.2012L23.9512 45.6639L9.70117 17.7725Z" fill="#FDAD00"/>
<path d="M23.9512 2.31494L10.4511 3.74215L9.70117 17.7725L23.9512 2.31494Z" fill="#FDD231"/>
<path d="M23.9512 2.31494L37.4512 3.74215L38.2012 17.7725L23.9512 2.31494Z" fill="#FDD231"/>
<path d="M47.9033 17.7726L37.4516 3.74219L38.2017 17.7726H47.9033ZM0 17.7726L10.4516 3.74219L9.7016 17.7726H0Z" fill="#FDAD00"/>
<path d="M23.9512 2.31494L9.70117 17.7725H38.2012L23.9512 2.31494Z" fill="#FEEEB7"/>
</svg>
